<?xml version="1.0" encoding="UTF-8"?>
<svg id="Layer_1" data-name="Layer 1" xmlns="http://www.w3.org/2000/svg" version="1.1" viewBox="0 0 1792 1792">
  <defs>
    <style>
      .cls-1 {
        fill: #fff;
        stroke-width: 0px;
      }
    </style>
  </defs>
  <path class="cls-1" d="M1664,896c0,167.3-48.8,317.8-146.5,451.5s-223.8,226.2-378.5,277.5c-18,3.3-31.2,1-39.5-7s-12.5-18-12.5-30v-211c0-64.7-17.3-112-52-142,38-4,72.2-10,102.5-18s61.7-21,94-39,59.3-40.2,81-66.5,39.3-61.3,53-105c13.7-43.7,20.5-93.8,20.5-150.5,0-80.7-26.3-149.3-79-206,24.7-60.7,22-128.7-8-204-18.7-6-45.7-2.3-81,11s-66,28-92,44l-38,24c-62-17.3-126-26-192-26s-130,8.7-192,26c-10.7-7.3-24.8-16.3-42.5-27s-45.5-23.5-83.5-38.5-66.7-19.5-86-13.5c-29.3,75.3-31.7,143.3-7,204-52.7,56.7-79,125.3-79,206s6.8,106.7,20.5,150c13.7,43.3,31.2,78.3,52.5,105s48.2,49,80.5,67,63.7,31,94,39,64.5,14,102.5,18c-26.7,24-43,58.3-49,103-14,6.7-29,11.7-45,15s-35,5-57,5-43.8-7.2-65.5-21.5-40.2-35.2-55.5-62.5c-12.7-21.3-28.8-38.7-48.5-52s-36.2-21.3-49.5-24l-20-3c-14,0-23.7,1.5-29,4.5s-7,6.8-5,11.5,5,9.3,9,14,8.3,8.7,13,12l7,5c14.7,6.7,29.2,19.3,43.5,38s24.8,35.7,31.5,51l10,23c8.7,25.3,23.3,45.8,44,61.5s43,25.7,67,30,47.2,6.7,69.5,7,40.8-.8,55.5-3.5l23-4c0,25.3.2,55,.5,89s.5,52,.5,54c0,12-4.3,22-13,30s-22,10.3-40,7c-154.7-51.3-280.8-143.8-378.5-277.5-97.7-133.7-146.5-284.2-146.5-451.5s34.3-267.8,103-385.5c68.7-117.7,161.8-210.8,279.5-279.5,117.7-68.7,246.2-103,385.5-103s267.8,34.3,385.5,103c117.7,68.7,210.8,161.8,279.5,279.5,68.7,117.7,103,246.2,103,385.5Z"/>
</svg>